# xmcd
#
# Track frame offsets:
#	150
#	23954
#	39914
#	60607
#	75526
#	91163
#	110134
#	127279
#	144928
#	163797
#	187218
#	206773
#	233813
#	258824
#	274883
#
# Disc length: 3967 seconds
#
# Revision: 2
# Processed by: cddbd v1.5.1PL0 Copyright (c) Steve Scherf et al.
# Submitted via: MusicManager 7.2.0.0 
#
DISCID=d60f7d0f
DTITLE=George Thorogood and The Destroyers - Anthology
DYEAR=2000
DGENRE=Blues
TTITLE0=How Do You Love (Live)
TTITLE1=Born To Be Bad
TTITLE2=You Talk Too Much
TTITLE3=I´m Ready
TTITLE4=Shake Your Moneymaker
TTITLE5=If You Don´t Start Drinkin´
TTITLE6=Hello Little Girl
TTITLE7=Long Distance Lover
TTITLE8=Get Haircut
TTITLE9=Howlin´ for My Baby
TTITLE10=Ghristine
TTITLE11=Let´s Work Together (Live)
TTITLE12=Johnny B. Goode (Live)
TTITLE13=Rocking My Life Away
TTITLE14=I Don´t Trust Nobody
EXTD=
EXTT0=
EXTT1=
EXTT2=
EXTT3=
EXTT4=
EXTT5=
EXTT6=
EXTT7=
EXTT8=
EXTT9=
EXTT10=
EXTT11=
EXTT12=
EXTT13=
EXTT14=
PLAYORDER=
